<?xml version="1.0" encoding="UTF-8" standalone="no"?>
<!-- Created with Inkscape (http://www.inkscape.org/) -->

<svg
   width="1500"
   height="300"
   viewBox="0 0 396.87498 79.375002"
   version="1.1"
   id="svg5"
   inkscape:version="1.1 (c68e22c387, 2021-05-23)"
   sodipodi:docname="jmadril.svg"
   inkscape:export-filename="C:\Users\joey1\OneDrive\Documents\GitHub\jmadril\assets\images\default_banner.png"
   inkscape:export-xdpi="96"
   inkscape:export-ydpi="96"
   xmlns:inkscape="http://www.inkscape.org/namespaces/inkscape"
   xmlns:sodipodi="http://sodipodi.sourceforge.net/DTD/sodipodi-0.dtd"
   xmlns="http://www.w3.org/2000/svg"
   xmlns:svg="http://www.w3.org/2000/svg">
  <sodipodi:namedview
     id="namedview7"
     pagecolor="#ffffff"
     bordercolor="#666666"
     borderopacity="1.0"
     inkscape:pageshadow="2"
     inkscape:pageopacity="0.0"
     inkscape:pagecheckerboard="0"
     inkscape:document-units="mm"
     showgrid="false"
     units="px"
     inkscape:zoom="0.22356819"
     inkscape:cx="270.61094"
     inkscape:cy="167.73406"
     inkscape:window-width="1920"
     inkscape:window-height="1017"
     inkscape:window-x="-8"
     inkscape:window-y="-8"
     inkscape:window-maximized="1"
     inkscape:current-layer="layer1"
     inkscape:lockguides="true"
     width="1280px"
     borderlayer="true"
     showguides="false" />
  <defs
     id="defs2" />
  <g
     inkscape:label="Layer 1"
     inkscape:groupmode="layer"
     id="layer1">
    <g
       id="g80852"
       transform="matrix(2.9937586,0,0,2.9937586,0.41286785,-19.719898)">
      <path
         d="m 0.2583498,25.36902 h 0.19408661 c 0.19408661,0.06469 0.52565123,0.129394 0.99469389,0.194087 0.4852165,0.06469 0.8976505,0.09705 1.2373021,0.09705 0.9704331,0 1.7144317,-0.250696 2.231996,-0.752087 0.5175643,-0.517564 0.7763464,-2.395622 0.7763464,-3.317534 V 8.7808134 H 8.0218141 V 21.2994 c 0,1.067475 -0.2021736,1.997474 -0.6065206,2.789994 -0.4043471,0.776347 -1.0027808,1.382867 -1.7953012,1.819562 -0.7925202,0.420521 -1.7710402,0.630781 -2.9355599,0.630781 -0.4366949,0 -0.8814767,-0.03235 -1.3343454,-0.09705 C 0.91339211,26.377997 0.54947971,26.313294 0.2583498,26.2486 Z"
         id="path25669"
         sodipodi:nodetypes="cccscsccsccsccc"
         style="font-size:19.7816px;line-height:1.25;font-family:Kufam;-inkscape-font-specification:Kufam;stroke-width:0.606521" />
      <path
         d="m 9.2772489,19.601142 c 0,-1.439477 0.2506952,-2.668692 0.7520851,-3.687647 0.517565,-1.018954 1.229216,-1.7953 2.134953,-2.329038 0.921911,-0.549912 1.9813,-0.824869 3.178167,-0.824869 1.196868,0 2.24817,0.274957 3.153907,0.824869 0.921912,0.533738 1.633563,1.310084 2.134953,2.329038 0.517565,1.018955 0.776347,2.24817 0.776347,3.687647 0,1.439475 -0.258782,2.668691 -0.776347,3.687645 -0.50139,1.018954 -1.213041,1.803388 -2.134953,2.3533 -0.905737,0.533738 -1.957039,0.800607 -3.153907,0.800607 -1.229214,0 -2.296691,-0.266869 -3.202428,-0.800607 -0.905737,-0.549912 -1.609301,-1.334346 -2.110692,-2.3533 -0.5013899,-1.018954 -0.7520851,-2.24817 -0.7520851,-3.687645 z m 2.2805181,0 c 0,1.617388 0.323478,3.729533 0.970432,4.5544 0.663129,0.824868 1.601214,1.237303 2.814255,1.237303 1.213041,0 2.14304,-0.412435 2.789995,-1.237303 0.663129,-0.824867 0.994694,-2.937012 0.994694,-4.5544 0,-1.633562 -0.331565,-3.968461 -0.994694,-4.777155 -0.646955,-0.824869 -1.576954,-1.237303 -2.789995,-1.237303 -1.213041,0 -2.151126,0.412434 -2.814255,1.237303 -0.646954,0.808694 -0.970432,3.143593 -0.970432,4.777155 z"
         id="path25671"
         sodipodi:nodetypes="sccsccsccscssscscscscs"
         style="font-size:19.7816px;line-height:1.25;font-family:Kufam;-inkscape-font-specification:Kufam;stroke-width:0.606521" />
      <path
         d="m 22.632766,24.920411 h 0.194085 c 0.582261,0.258783 1.237303,0.469044 1.965128,0.630782 0.743999,0.161739 1.47991,0.242608 2.207735,0.242608 0.226434,0 0.525651,-0.0081 0.89765,-0.02426 0.388173,-0.03234 0.776347,-0.10513 1.16452,-0.218347 2.264763,-0.606841 2.126689,-3.567242 0.727825,-4.324577 -0.469043,-0.242608 -1.115998,-0.428608 -1.940866,-0.557999 l -1.16452,-0.194087 c -1.374779,-0.226434 -2.393735,-0.614608 -3.056864,-1.16452 -0.663129,-0.566086 -0.994693,-1.358605 -0.994693,-2.377559 0,-0.711652 0.185999,-1.374781 0.557998,-1.989389 0.388173,-0.630781 1.002781,-1.132172 1.843823,-1.504171 0.857216,-0.388172 1.997474,-0.582259 3.420777,-0.582259 0.63078,0 1.237301,0.05661 1.819562,0.169825 0.598433,0.09705 1.091737,0.218347 1.47991,0.363913 V 15.37976 H 31.56075 c -0.533738,-0.194087 -1.043216,-0.339651 -1.528433,-0.436695 -0.485216,-0.09705 -1.043215,-0.145564 -1.673997,-0.145564 -1.115998,0 -1.997475,0.161738 -2.64443,0.485216 -0.630782,0.307304 -0.946173,0.832955 -0.946173,1.576954 0,0.566086 0.226434,0.970433 0.679304,1.213041 0.469043,0.242608 1.115998,0.428608 1.940866,0.557999 l 1.16452,0.194086 c 0.743998,0.113224 1.423302,0.315391 2.03791,0.60652 0.614607,0.29113 1.107911,0.687391 1.479909,1.188782 0.372,0.485216 0.557999,1.099824 0.557999,1.843823 0,1.310084 -0.469042,2.304777 -1.407128,2.98408 -0.938086,0.663129 -2.377561,0.994695 -4.318427,0.994695 -0.824867,0 -1.601214,-0.0647 -2.329038,-0.194087 -0.711652,-0.129391 -1.358607,-0.29113 -1.940866,-0.485217 z"
         id="path25673"
         sodipodi:nodetypes="cccsccccccsccsccccsscscccscscsccc"
         style="font-size:19.7816px;line-height:1.25;font-family:Kufam;-inkscape-font-specification:Kufam;stroke-width:0.606521" />
      <path
         d="m 40.743402,26.442694 c -1.229214,0 -2.304778,-0.145565 -3.22669,-0.436695 -0.905737,-0.307304 -1.665909,-0.752085 -2.280517,-1.334345 -0.598433,-0.58226 -1.043215,-1.29391 -1.334345,-2.134953 -0.29113,-0.857216 -0.436695,-1.835736 -0.436695,-2.935559 0,-1.37478 0.250695,-2.571648 0.752086,-3.590603 0.517564,-1.035128 1.229214,-1.835736 2.134952,-2.401822 0.921911,-0.566086 1.997475,-0.849129 3.226689,-0.849129 1.423303,0 2.571648,0.29113 3.445039,0.87339 0.873389,0.58226 1.496083,1.39904 1.868083,2.450343 0.388172,1.051303 0.557999,2.272431 0.509478,3.663385 l -0.02426,0.679303 h -8.567009 l 1.137093,-0.584473 h 5.125135 v -0.194085 c 0,-1.213043 -0.29113,-3.386222 -0.87339,-4.000829 -0.58226,-0.630782 -1.45565,-0.946173 -2.62017,-0.946173 -0.679303,0 -1.310084,0.145566 -1.892344,0.436695 -0.582259,0.29113 -1.051302,0.784434 -1.407127,1.479911 -1.306898,4.202014 0.10567,9.285201 4.561035,9.310393 0.824868,0 1.528431,-0.08087 2.110692,-0.242608 0.58226,-0.161738 0.447858,-0.339651 0.787509,-0.533738 l 0.789444,0.563762 c -0.388172,0.194087 -0.89765,0.363913 -1.528432,0.509478 -0.63078,0.145565 -1.382867,0.218347 -2.256257,0.218347 z"
         id="path25675"
         sodipodi:nodetypes="scccsccssccccccscssccsccsss"
         style="font-size:19.7816px;line-height:1.25;font-family:Kufam;-inkscape-font-specification:Kufam;stroke-width:0.606521" />
      <path
         d="M 47.069337,31.87712 V 17.80584 c 0,-0.29113 -0.0081,-0.68739 -0.02426,-1.18878 0,-0.501391 -0.01618,-1.002781 -0.04852,-1.504172 -0.01618,-0.50139 -0.05661,-0.89765 -0.121307,-1.18878 l 0.04852,-0.194087 c 0.71165,-0.291129 1.496084,-0.525651 2.3533,-0.703563 0.873389,-0.177913 1.722517,-0.26687 2.547386,-0.26687 1.018955,0 1.932779,0.153653 2.741474,0.460957 0.824867,0.307303 1.528431,0.760172 2.110691,1.358605 2.959252,3.279127 1.094032,9.710909 -2.256257,10.608615 -1.6827,0.22607 -3.748935,-0.500667 -3.748935,-0.500667 l -0.09302,-0.926341 0.683521,0.377155 c 1.907096,0.790621 2.472958,0.548292 3.764966,-0.824867 0.776346,-0.857216 1.16452,-2.094519 1.16452,-3.711907 0,-1.633562 -0.39626,-2.85469 -1.18878,-3.663385 -0.79252,-0.824869 -1.916606,-1.237302 -3.372255,-1.237302 -0.549913,0 -1.08365,0.06469 -1.601215,0.194086 -0.50139,0.113212 -0.913824,0.258783 -1.237302,0.436695 l 0.363913,-0.679303 c 0.04852,0.242608 0.08087,0.541825 0.09705,0.89765 0.03234,0.355826 0.04852,0.719738 0.04852,1.091737 v 15.2358 z"
         id="path25677"
         sodipodi:nodetypes="cscccccscccccccsscsccccsc"
         style="font-size:19.7816px;line-height:1.25;font-family:Kufam;-inkscape-font-specification:Kufam;stroke-width:0.606521" />
      <path
         d="M 59.466527,26.248607 V 11.983242 c 0,-0.323478 -0.0081,-0.743999 -0.02426,-1.261563 0,-0.517565 -0.01618,-1.0270423 -0.04852,-1.5284318 C 59.377567,8.6918565 59.337137,8.2955957 59.27244,8.004466 l 0.04852,-0.1940856 h 2.377561 V 14.385063 L 61.237568,13.6815 c 0.517563,-0.242608 1.08365,-0.45287 1.698258,-0.630782 0.63078,-0.194087 1.350518,-0.29113 2.159212,-0.29113 3.427243,0 4.208435,2.165087 4.208435,5.725555 v 7.763464 h -1.103049 v -7.472334 c 0,-1.067476 -0.153651,-1.884257 -0.460955,-2.450344 -0.29113,-0.582259 -0.71165,-0.978519 -1.261563,-1.18878 -0.533737,-0.226434 -1.156432,-0.339651 -1.868084,-0.339651 -0.420521,0 -0.841042,0.04044 -1.261563,0.121307 -0.404346,0.08087 -0.79252,0.186001 -1.16452,0.31539 -0.355825,0.113212 -0.679303,0.234522 -0.970433,0.363912 l 0.485217,-1.115997 v 11.034392 z"
         id="path25679"
         sodipodi:nodetypes="csccccccccccccsccscccccc"
         style="font-size:19.7816px;line-height:1.25;font-family:Kufam;-inkscape-font-specification:Kufam;stroke-width:0.606521" />
      <path
         d="m 78.608235,26.248607 v -17.4677936 0 l 7.132683,9.6072876 v 0 L 92.881006,8.7808134 V 31.797583 h -1.366012 v -19.20782 l 0.509478,0.929639 -5.798338,7.496594 -5.28886,-7.130295 v 11.64058 z"
         id="path25681"
         sodipodi:nodetypes="cccccccccccccc"
         style="font-size:19.7816px;line-height:1.25;font-family:Kufam;-inkscape-font-specification:Kufam;stroke-width:0.606521" />
      <path
         d="m 99.866723,26.539737 c -1.892344,0 -3.315646,-0.339651 -4.269905,-1.018954 -0.938086,-0.695478 -1.407128,-1.74678 -1.407128,-3.153908 0,-0.938085 0.226434,-1.714432 0.679303,-2.329039 0.469042,-0.614607 1.124084,-1.075563 1.965127,-1.382867 0.857216,-0.307304 1.868084,-0.460955 3.032603,-0.460955 0.905737,0 1.185577,0.08087 1.784007,0.242608 l 0.85668,0.367448 c -0.38174,0.44047 -0.9052,0.367448 -0.9052,0.367448 -0.64695,-0.129391 -0.78122,-0.194087 -1.34731,-0.194087 -1.310083,0 -2.288603,0.169827 -2.935558,0.509478 -0.630782,0.339653 -0.946173,2.006577 -0.946173,2.879966 0,0.824869 0.307304,2.520272 0.921911,2.892271 0.614608,0.355825 1.504171,0.533738 2.668691,0.533738 0.646959,0 1.269649,-0.04852 1.868079,-0.145565 0.59844,-0.113212 0.54721,-0.149086 1.06477,-0.326998 l -0.0215,-2.055795 v -0.606521 -4.366948 c 0,-1.035129 -0.14556,-1.803388 -0.43669,-2.304779 -0.27496,-0.517564 -0.69548,-0.857216 -1.26156,-1.018954 -0.54992,-0.177913 -1.245393,-0.26687 -2.086434,-0.26687 -0.630782,0 -1.277738,0.08087 -1.940867,0.242608 -0.646955,0.161739 -1.16452,0.339651 -1.552693,0.533738 h -0.194101 v -1.03281 c 0.58226,-0.242609 1.229215,-0.420521 1.940866,-0.533738 0.727824,-0.129391 1.407128,-0.194087 2.03791,-0.194087 0.808699,0 1.552689,0.07278 2.231999,0.218348 4.05569,1.187691 3.49356,3.960342 3.49356,7.461929 v 1.261563 c 0.0162,0.517565 0.0323,1.027043 0.0485,1.528432 0.0323,0.501391 0.0809,0.897652 0.14557,1.188781 l -0.0485,0.194086 c -0.53374,0.194087 -1.12409,0.363914 -1.77104,0.509478 -0.64696,0.145564 -1.29391,0.258781 -1.94087,0.339651 -0.63078,0.08087 -1.18878,0.121306 -1.673993,0.121306 z"
         id="path25683"
         sodipodi:nodetypes="scsccscccscscsccccsccscccccsccccccscss"
         style="font-size:19.7816px;line-height:1.25;font-family:Kufam;-inkscape-font-specification:Kufam;stroke-width:0.606521" />
      <path
         d="m 112.70057,26.539737 c -1.45564,0 -2.69294,-0.274955 -3.71189,-0.824868 -1.00277,-0.566086 -1.77103,-1.366692 -2.30477,-2.401821 -0.51756,-1.035128 -0.77634,-2.272431 -0.77634,-3.711906 0,-1.439477 0.29113,-2.668692 0.87339,-3.687647 0.58226,-1.018954 1.39904,-1.7953 2.45033,-2.329038 1.05129,-0.549912 2.27241,-0.824869 3.66337,-0.824869 0.56608,0 1.06747,0.04044 1.50417,0.121307 l -1.35858,0.785328 c -1.56887,0 -2.77381,0.420521 -3.61485,1.261563 -0.82486,0.841043 -1.2373,3.088318 -1.2373,4.673358 0.23142,3.3164 1.22535,6.008621 4.70658,6.031963 0.56609,0 1.07557,-0.04852 1.52843,-0.145564 0.46905,-0.113213 0.88149,-0.250696 1.23731,-0.412434 l -0.38817,0.679302 c -0.0646,-0.274956 -0.1132,-0.598434 -0.14557,-0.970433 -0.0324,-0.388173 -0.0486,-1.818667 -0.0486,-2.223013 v -10.57772 c 0,-0.323479 -0.009,-0.743999 -0.0243,-1.261563 0,-0.517565 -0.0162,-1.0270429 -0.0486,-1.5284323 -0.0162,-0.5013908 -0.0567,-0.8976515 -0.12129,-1.1887812 l 0.0486,-0.1940856 2.37755,0.258558 v 13.3275041 1.261562 c 0.0162,0.517565 0.0324,1.027043 0.0486,1.528433 0.0324,0.50139 0.081,0.897651 0.14557,1.188781 l -0.0486,0.194085 c -0.67929,0.258783 -1.4152,0.485217 -2.20772,0.679304 -0.77635,0.194087 -1.62548,0.291129 -2.54739,0.291129 z"
         id="path25685"
         sodipodi:nodetypes="cccsscscccccccccssccccccccccccc"
         style="font-size:19.7816px;line-height:1.25;font-family:Kufam;-inkscape-font-specification:Kufam;stroke-width:0.606521" />
      <path
         d="m 118.7232,26.248607 v -8.345723 c 0,-0.323478 -0.009,-0.743999 -0.0243,-1.261564 0,-0.517564 -0.0162,-1.027041 -0.0486,-1.528432 -0.0162,-0.50139 -0.0567,-0.89765 -0.1213,-1.18878 l 0.0486,-0.194087 c 0.42052,-0.161738 0.93809,-0.299217 1.5527,-0.412434 0.63078,-0.113212 1.25348,-0.202174 1.86808,-0.266869 0.63078,-0.0647 1.15643,-0.09705 1.57695,-0.09705 0.38818,0 0.70357,0.0081 0.94618,0.02426 0.2426,0.01618 0.44478,0.04044 0.60652,0.07278 l -0.19409,1.113479 c -0.21026,-0.03234 -0.46096,-0.0566 -0.75209,-0.07278 -0.29113,-0.01618 -0.558,-0.02426 -0.8006,-0.02426 -0.50139,0 -1.02704,0.04044 -1.57695,0.121307 -0.54992,0.08087 -1.02705,0.161741 -1.4314,0.242608 l 0.4367,-0.60652 c 0.097,0.533739 0.14556,2.024253 0.14556,2.816774 v 9.193594 z"
         id="path25687"
         sodipodi:nodetypes="csccccccssccsssccscc"
         style="font-size:19.7816px;line-height:1.25;font-family:Kufam;-inkscape-font-specification:Kufam;stroke-width:0.606521" />
      <path
         d="m 127.20835,10.721679 c -0.40434,0 -0.75208,-0.129391 -1.04321,-0.388173 0,0 -0.28646,-0.4056764 0,-0.901845 0.29113,-0.2749554 0.63887,-0.4124337 1.04321,-0.4124337 0.42052,0 0.76827,0.1374783 1.04322,0.4124337 0.27496,0.2587813 0.41244,0.606521 0.41244,1.043216 0,0.436695 -0.13748,-0.416327 -0.41244,-0.141371 -0.27495,0.258782 -0.6227,0.388173 -1.04322,0.388173 z m -1.11599,15.526928 v -9.025026 c 0,-0.323478 -0.009,-0.743999 -0.0243,-1.261564 0,-0.517564 -0.0162,-1.027042 -0.0486,-1.528431 -0.0162,-0.501391 -0.0567,-0.897652 -0.12129,-1.188781 l 0.0486,-0.194087 2.37757,0.34993 v 12.847959 z"
         id="path25689"
         sodipodi:nodetypes="sccscscscsccccccc"
         style="font-size:19.7816px;line-height:1.25;font-family:Kufam;-inkscape-font-specification:Kufam;stroke-width:0.606521" />
      <path
         d="M 130.38642,26.248607 V 11.983242 c 0,-0.323478 -0.009,-0.743999 -0.0243,-1.261563 0,-0.517565 -0.0162,-1.0270423 -0.0486,-1.5284318 -0.0162,-0.5013907 -0.0567,-0.8976515 -0.12129,-1.1887812 l 0.0486,-0.1940856 h 1.79247 V 25.882926 Z"
         id="path25691"
         sodipodi:nodetypes="csccccccc"
         style="font-size:19.7816px;line-height:1.25;font-family:Kufam;-inkscape-font-specification:Kufam;stroke-width:0.606521" />
    </g>
  </g>
</svg>
