<?xml version="1.0" encoding="UTF-8" standalone="no"?>
<!-- Created with Inkscape (http://www.inkscape.org/) -->

<svg
   width="300"
   height="300"
   viewBox="0 0 79.374996 79.375002"
   version="1.1"
   id="svg5"
   inkscape:version="1.1 (c68e22c387, 2021-05-23)"
   sodipodi:docname="navlogo_dark.svg"
   inkscape:export-filename="C:\Users\joey1\OneDrive\Documents\GitHub\jmadril\assets\images\navlogo_dark.png"
   inkscape:export-xdpi="96"
   inkscape:export-ydpi="96"
   xmlns:inkscape="http://www.inkscape.org/namespaces/inkscape"
   xmlns:sodipodi="http://sodipodi.sourceforge.net/DTD/sodipodi-0.dtd"
   xmlns="http://www.w3.org/2000/svg"
   xmlns:svg="http://www.w3.org/2000/svg">
  <sodipodi:namedview
     id="namedview7"
     pagecolor="#ffffff"
     bordercolor="#666666"
     borderopacity="1.0"
     inkscape:pageshadow="2"
     inkscape:pageopacity="0.0"
     inkscape:pagecheckerboard="0"
     inkscape:document-units="mm"
     showgrid="false"
     units="px"
     inkscape:zoom="0.54170354"
     inkscape:cx="791.94609"
     inkscape:cy="167.06555"
     inkscape:window-width="1920"
     inkscape:window-height="1017"
     inkscape:window-x="-8"
     inkscape:window-y="-8"
     inkscape:window-maximized="1"
     inkscape:current-layer="layer1"
     inkscape:lockguides="true"
     width="1280px"
     borderlayer="true"
     showguides="false" />
  <defs
     id="defs2" />
  <g
     inkscape:label="Layer 1"
     inkscape:groupmode="layer"
     id="layer1">
    <g
       id="g77994"
       transform="matrix(0.55445945,0,0,0.55445945,4.5939317,1.0626395)"
       style="fill:#ffffff;fill-opacity:1"
       inkscape:export-filename="C:\Users\joey1\OneDrive\Documents\GitHub\jmadril\assets\images\navlogo_dark.png"
       inkscape:export-xdpi="96"
       inkscape:export-ydpi="96">
      <path
         d="m 0.2583498,96.535345 h 1.0267523 c 1.0267523,0.342222 2.7807875,0.684517 5.2621057,1.026755 2.5668807,0.342221 4.7487292,0.513411 6.5455462,0.513411 5.133762,0 9.069645,-1.326226 11.807651,-3.978672 2.738006,-2.738005 4.107009,-12.673262 4.107009,-17.550339 V 8.7808134 H 41.328442 V 75.006339 c 0,5.647131 -1.069534,10.566989 -3.208601,14.759559 -2.139067,4.107013 -5.304887,7.31561 -9.497459,9.625804 -4.192571,2.224628 -9.369114,3.336938 -15.529628,3.336938 -2.310193,0 -4.6631672,-0.17113 -7.0589223,-0.51341 -2.3101928,-0.34222 -4.2353534,-0.68451 -5.7754819,-1.02675 z"
         id="path25669-3"
         sodipodi:nodetypes="cccscsccsccsccc"
         style="font-size:19.7816px;line-height:1.25;font-family:Kufam;-inkscape-font-specification:Kufam;fill:#ffffff;fill-opacity:1;stroke-width:3.2086" />
      <path
         d="m 50.82278,101.18852 v -92.4077066 0 L 88.555927,59.605055 v 0 L 126.32825,8.7808134 V 130.54357 H 119.1018 V 28.930827 l 2.69523,4.917954 -30.674225,39.658301 -27.979,-37.720515 v 61.580717 z"
         id="path25681-2"
         sodipodi:nodetypes="cccccccccccccc"
         style="font-size:19.7816px;line-height:1.25;font-family:Kufam;-inkscape-font-specification:Kufam;fill:#ffffff;fill-opacity:1;stroke-width:3.2086" />
    </g>
  </g>
</svg>
